<svg width="63" height="63" viewBox="0 0 63 63" fill="none" xmlns="http://www.w3.org/2000/svg">
<path d="M61.2803 18.5815L61.2803 18.5815L61.281 18.5956C61.573 23.7404 61.573 39.2596 61.281 44.4044H61.281L61.2805 44.4143C61.0369 49.274 59.9432 53.3153 56.6301 56.6291L56.6281 56.6312C53.3157 59.9569 49.2774 61.0503 44.4226 61.2803V61.2802L44.4085 61.281C39.2649 61.573 23.7351 61.573 18.5915 61.281L18.5915 61.281L18.5816 61.2805C13.7253 61.0369 9.6965 59.9438 6.3679 56.6271C3.04284 53.3139 1.94959 49.2746 1.71968 44.4185L1.71975 44.4185L1.71895 44.4044C1.42702 39.2596 1.42702 23.7263 1.71895 18.5815L1.71898 18.5815L1.71948 18.5716C1.96325 13.7087 3.04424 9.6706 6.3679 6.35883C9.69587 3.04278 13.7377 1.9496 18.5776 1.71972L18.5776 1.71979L18.5915 1.719C23.7351 1.427 39.2649 1.427 44.4085 1.719V1.71903L44.4184 1.71953C49.2768 1.96318 53.317 3.05711 56.6301 6.37087L56.6321 6.37289C59.9572 9.68605 61.0504 13.7254 61.2803 18.5815ZM50.6263 57.4533L50.6316 57.4511C53.7792 56.1886 56.205 53.7647 57.4542 50.6249C58.3877 48.2787 58.6991 44.5244 58.8089 41.0006C58.8891 38.4254 58.8625 35.7969 58.8413 33.6928C58.8329 32.8702 58.8254 32.1278 58.8254 31.5C58.8254 30.8721 58.8329 30.1298 58.8413 29.3075C58.8625 27.2046 58.8891 24.5784 58.8089 22.0047C58.6991 18.4818 58.3876 14.7289 57.4549 12.3767L57.4528 12.3715C56.1906 9.22335 53.7673 6.79697 50.628 5.54738L50.6239 5.54576C48.2805 4.62097 44.5296 4.30922 41.0062 4.19767C38.4122 4.11555 35.7662 4.14091 33.6547 4.16116C32.8505 4.16887 32.1238 4.17583 31.507 4.17583C30.8793 4.17583 30.1372 4.16832 29.315 4.16C27.2126 4.13872 24.587 4.11215 22.0138 4.19238C18.4917 4.3022 14.7395 4.61379 12.3877 5.54674L12.3877 5.54673L12.3824 5.54885C9.2348 6.81137 6.80903 9.23535 5.5598 12.3751L5.55818 12.3792C4.63366 14.7229 4.32198 18.4745 4.21045 21.9987C4.12835 24.5933 4.15371 27.2399 4.17395 29.3518C4.18166 30.1562 4.18862 30.8831 4.18862 31.5C4.18862 32.1279 4.18111 32.8702 4.17279 33.6925C4.15152 35.7954 4.12495 38.4216 4.20516 40.9953C4.31496 44.5182 4.62648 48.2711 5.55915 50.6233L5.56127 50.6285C6.82343 53.7766 9.2468 56.203 12.3861 57.4526L12.3902 57.4542C14.7335 58.379 18.4844 58.6908 22.0078 58.8023C24.6019 58.8845 27.2479 58.8591 29.3594 58.8388C30.1636 58.8311 30.8903 58.8242 31.507 58.8242C32.1348 58.8242 32.8769 58.8317 33.699 58.84C35.8015 58.8613 38.4271 58.8879 41.0003 58.8076C44.5224 58.6978 48.2746 58.3862 50.6263 57.4533ZM16.8582 31.5C16.8582 23.3874 23.397 16.8476 31.507 16.8476C39.617 16.8476 46.1558 23.3874 46.1558 31.5C46.1558 39.6126 39.617 46.1524 31.507 46.1524C23.397 46.1524 16.8582 39.6126 16.8582 31.5ZM19.5082 31.5C19.5082 38.1212 24.9031 43.5012 31.507 43.5012C38.1109 43.5012 43.5059 38.1212 43.5059 31.5C43.5059 24.8801 38.1263 19.4988 31.507 19.4988C24.8878 19.4988 19.5082 24.8801 19.5082 31.5ZM50.583 14.6869C50.583 15.9497 49.5714 16.9544 48.3164 16.9544C47.0546 16.9544 46.0497 15.943 46.0497 14.6869C46.0497 13.4344 47.0651 12.4194 48.3164 12.4194C49.5677 12.4194 50.583 13.4344 50.583 14.6869Z" fill="#F5F5F5" stroke="black" stroke-width="3"/>
</svg>
