<svg width="63" height="60" viewBox="0 0 63 60" fill="none" xmlns="http://www.w3.org/2000/svg">
<path d="M61.5 37.995V58.5H51.4528V40.4996C51.4528 38.2434 51.449 35.2746 50.4521 32.8772C49.9344 31.6321 49.1272 30.4776 47.8765 29.6466C46.6277 28.817 45.0605 28.3922 43.162 28.3922C41.2802 28.3922 39.6893 28.7423 38.3739 29.4359C37.0474 30.1353 36.0831 31.1412 35.4017 32.3181C34.0792 34.6021 33.8306 37.5214 33.8306 40.1647V58.5H23.7834V21.4411H33.3103V25.4055V26.9055H34.8103H34.9931H35.8769L36.3052 26.1324C37.7846 23.4621 41.5417 20.4366 47.3512 20.4366C53.6209 20.4366 56.9788 22.3769 58.8813 25.2549C60.8796 28.2778 61.5 32.6488 61.5 37.995ZM12.6019 58.5H2.54063V21.4411H12.6019V58.5ZM7.56422 12.9767C4.16508 12.9767 1.5 10.3034 1.5 7.20418C1.5 5.71559 2.12021 4.27226 3.25 3.19625C4.38228 2.11787 5.93292 1.5 7.56422 1.5C9.19551 1.5 10.7462 2.11787 11.8784 3.19625C13.0082 4.27226 13.6284 5.71559 13.6284 7.20418C13.6284 10.3032 10.9621 12.9767 7.56422 12.9767Z" fill="#F5F5F5" stroke="black" stroke-width="3"/>
</svg>
